<svg xmlns="http://www.w3.org/2000/svg" width="134.736" height="56.719" viewBox="0 0 134.736 56.719">
  <g id="logo" transform="translate(-603.29 -210.63)">
    <path id="パス_750" data-name="パス 750" d="M618.849,279.944a5.647,5.647,0,0,0-.835-.622,10.219,10.219,0,0,0-1.474-.77,12.834,12.834,0,0,0-1.883-.639,8.242,8.242,0,0,0-2.064-.262,4.626,4.626,0,0,0-2.784.688,2.276,2.276,0,0,0-.917,1.933,1.985,1.985,0,0,0,.344,1.2,2.973,2.973,0,0,0,1,.835,8.369,8.369,0,0,0,1.654.655q1,.295,2.309.622,1.7.459,3.1.983a8.4,8.4,0,0,1,2.358,1.31,5.418,5.418,0,0,1,1.49,1.884,6.251,6.251,0,0,1,.524,2.7,6.734,6.734,0,0,1-.7,3.194,5.918,5.918,0,0,1-1.9,2.145,8.243,8.243,0,0,1-2.752,1.2,13.83,13.83,0,0,1-3.259.377,17.5,17.5,0,0,1-5.175-.786,15.972,15.972,0,0,1-4.586-2.227l2-3.9a6.272,6.272,0,0,0,1.064.77,16.12,16.12,0,0,0,1.818.95,14.072,14.072,0,0,0,2.326.8,10.5,10.5,0,0,0,2.62.328q3.734,0,3.734-2.391a1.963,1.963,0,0,0-.426-1.278,3.617,3.617,0,0,0-1.212-.917,11.618,11.618,0,0,0-1.9-.721q-1.114-.327-2.489-.721a21.124,21.124,0,0,1-2.9-1,7.611,7.611,0,0,1-2.047-1.278,4.782,4.782,0,0,1-1.228-1.7,5.892,5.892,0,0,1-.409-2.309,7.225,7.225,0,0,1,.655-3.145,6.359,6.359,0,0,1,1.818-2.293,8.234,8.234,0,0,1,2.7-1.392,11.178,11.178,0,0,1,3.308-.475,12.851,12.851,0,0,1,4.521.77,16.866,16.866,0,0,1,3.6,1.818Z" transform="translate(0 -45.488)"/>
    <path id="パス_751" data-name="パス 751" d="M728.111,271.658v3.964H711.962V252.364h15.854v3.964H716.482v5.6h9.794V265.6h-9.794v6.06Z" transform="translate(-78.392 -30.106)"/>
    <path id="パス_752" data-name="パス 752" d="M816.07,255.21V231.953h4.52v19.294h11.858v3.964Z" transform="translate(-153.493 -15.382)"/>
    <path id="パス_753" data-name="パス 753" d="M920.12,233.887V210.63h4.521v19.293H936.5v3.964Z" transform="translate(-228.551)"/>
    <path id="パス_754" data-name="パス 754" d="M1045.52,214.331v3.538h-3.374v3.7h-3.964v-3.7h-3.374v-3.538h3.374v-3.7h3.964v3.7Z" transform="translate(-311.284)"/>
    <rect id="長方形_400" data-name="長方形 400" width="18.29" height="4.505" rx="1.936" transform="translate(603.333 262.844)" fill="#14a79c"/>
    <rect id="長方形_401" data-name="長方形 401" width="18.29" height="12.369" rx="1.936" transform="translate(632.499 254.979)" fill="#14a79c"/>
    <rect id="長方形_402" data-name="長方形 402" width="18.29" height="18.099" rx="1.936" transform="translate(661.622 249.25)" fill="#14a79c"/>
    <rect id="長方形_403" data-name="長方形 403" width="18.29" height="23.829" rx="1.936" transform="translate(690.613 243.52)" fill="#14a79c"/>
    <rect id="長方形_404" data-name="長方形 404" width="18.29" height="37.291" rx="1.936" transform="translate(719.736 230.058)" fill="#14a79c"/>
  </g>
</svg>
